<mxfile host="app.diagrams.net" modified="2022-02-03T14:26:12.775Z" agent="5.0 (Windows NT 10.0; Win64; x64) AppleWebKit/537.36 (KHTML, like Gecko) Chrome/97.0.4692.99 Safari/537.36 Edg/97.0.1072.76" etag="WDkWKxFmFO44c4UbyQlY" version="16.5.3" type="github">
  <diagram id="YQHJ9FyLoYGjweepiUjj" name="Page-1">
    <mxGraphModel dx="868" dy="1661" grid="1" gridSize="10" guides="1" tooltips="1" connect="1" arrows="1" fold="1" page="1" pageScale="1" pageWidth="827" pageHeight="1169" math="0" shadow="0">
      <root>
        <mxCell id="0" />
        <mxCell id="1" parent="0" />
        <mxCell id="dkbOTtgZ_LOJS4qJVRah-12" value="" style="edgeStyle=orthogonalEdgeStyle;rounded=0;orthogonalLoop=1;jettySize=auto;html=1;" edge="1" parent="1" source="dkbOTtgZ_LOJS4qJVRah-1" target="dkbOTtgZ_LOJS4qJVRah-4">
          <mxGeometry relative="1" as="geometry" />
        </mxCell>
        <mxCell id="dkbOTtgZ_LOJS4qJVRah-1" value="Inicio" style="strokeWidth=2;html=1;shape=mxgraph.flowchart.terminator;whiteSpace=wrap;fillColor=#dae8fc;strokeColor=#6c8ebf;" vertex="1" parent="1">
          <mxGeometry x="20" y="130" width="100" height="50" as="geometry" />
        </mxCell>
        <mxCell id="dkbOTtgZ_LOJS4qJVRah-2" value="Objetivo: Trocar Pneu" style="strokeWidth=2;html=1;shape=mxgraph.flowchart.annotation_2;align=left;labelPosition=right;pointerEvents=1;" vertex="1" parent="1">
          <mxGeometry x="150" width="50" height="100" as="geometry" />
        </mxCell>
        <mxCell id="dkbOTtgZ_LOJS4qJVRah-3" value="Fim" style="strokeWidth=2;html=1;shape=mxgraph.flowchart.terminator;whiteSpace=wrap;fillColor=#dae8fc;strokeColor=#6c8ebf;" vertex="1" parent="1">
          <mxGeometry x="740" y="340" width="100" height="50" as="geometry" />
        </mxCell>
        <mxCell id="dkbOTtgZ_LOJS4qJVRah-13" value="" style="edgeStyle=orthogonalEdgeStyle;rounded=0;orthogonalLoop=1;jettySize=auto;html=1;" edge="1" parent="1" source="dkbOTtgZ_LOJS4qJVRah-4" target="dkbOTtgZ_LOJS4qJVRah-5">
          <mxGeometry relative="1" as="geometry" />
        </mxCell>
        <mxCell id="dkbOTtgZ_LOJS4qJVRah-4" value="Abrir o porta mala" style="rounded=1;whiteSpace=wrap;html=1;absoluteArcSize=1;arcSize=14;strokeWidth=2;fillColor=#d5e8d4;strokeColor=#82b366;" vertex="1" parent="1">
          <mxGeometry x="10" y="230" width="120" height="60" as="geometry" />
        </mxCell>
        <mxCell id="dkbOTtgZ_LOJS4qJVRah-14" style="edgeStyle=orthogonalEdgeStyle;rounded=0;orthogonalLoop=1;jettySize=auto;html=1;entryX=0;entryY=0.5;entryDx=0;entryDy=0;" edge="1" parent="1" source="dkbOTtgZ_LOJS4qJVRah-5" target="dkbOTtgZ_LOJS4qJVRah-6">
          <mxGeometry relative="1" as="geometry" />
        </mxCell>
        <mxCell id="dkbOTtgZ_LOJS4qJVRah-5" value="Pegar o step e o macaco no porta mala" style="rounded=1;whiteSpace=wrap;html=1;absoluteArcSize=1;arcSize=14;strokeWidth=2;fillColor=#d5e8d4;strokeColor=#82b366;" vertex="1" parent="1">
          <mxGeometry x="10" y="340" width="120" height="60" as="geometry" />
        </mxCell>
        <mxCell id="dkbOTtgZ_LOJS4qJVRah-15" value="" style="edgeStyle=orthogonalEdgeStyle;rounded=0;orthogonalLoop=1;jettySize=auto;html=1;" edge="1" parent="1" source="dkbOTtgZ_LOJS4qJVRah-6" target="dkbOTtgZ_LOJS4qJVRah-7">
          <mxGeometry relative="1" as="geometry" />
        </mxCell>
        <mxCell id="dkbOTtgZ_LOJS4qJVRah-6" value="Desparafusar o pneu furado" style="rounded=1;whiteSpace=wrap;html=1;absoluteArcSize=1;arcSize=14;strokeWidth=2;fillColor=#d5e8d4;strokeColor=#82b366;" vertex="1" parent="1">
          <mxGeometry x="190" y="230" width="120" height="60" as="geometry" />
        </mxCell>
        <mxCell id="dkbOTtgZ_LOJS4qJVRah-16" style="edgeStyle=orthogonalEdgeStyle;rounded=0;orthogonalLoop=1;jettySize=auto;html=1;entryX=0;entryY=0.5;entryDx=0;entryDy=0;" edge="1" parent="1" source="dkbOTtgZ_LOJS4qJVRah-7" target="dkbOTtgZ_LOJS4qJVRah-8">
          <mxGeometry relative="1" as="geometry" />
        </mxCell>
        <mxCell id="dkbOTtgZ_LOJS4qJVRah-7" value="Levanatar o carro com o macaco" style="rounded=1;whiteSpace=wrap;html=1;absoluteArcSize=1;arcSize=14;strokeWidth=2;fillColor=#d5e8d4;strokeColor=#82b366;" vertex="1" parent="1">
          <mxGeometry x="190" y="340" width="120" height="60" as="geometry" />
        </mxCell>
        <mxCell id="dkbOTtgZ_LOJS4qJVRah-17" value="" style="edgeStyle=orthogonalEdgeStyle;rounded=0;orthogonalLoop=1;jettySize=auto;html=1;" edge="1" parent="1" source="dkbOTtgZ_LOJS4qJVRah-8" target="dkbOTtgZ_LOJS4qJVRah-9">
          <mxGeometry relative="1" as="geometry" />
        </mxCell>
        <mxCell id="dkbOTtgZ_LOJS4qJVRah-8" value="Trocar a roda com o pneu furado pelo step" style="rounded=1;whiteSpace=wrap;html=1;absoluteArcSize=1;arcSize=14;strokeWidth=2;fillColor=#d5e8d4;strokeColor=#82b366;" vertex="1" parent="1">
          <mxGeometry x="370" y="230" width="120" height="60" as="geometry" />
        </mxCell>
        <mxCell id="dkbOTtgZ_LOJS4qJVRah-20" style="edgeStyle=orthogonalEdgeStyle;rounded=0;orthogonalLoop=1;jettySize=auto;html=1;entryX=0;entryY=0.5;entryDx=0;entryDy=0;" edge="1" parent="1" source="dkbOTtgZ_LOJS4qJVRah-9" target="dkbOTtgZ_LOJS4qJVRah-10">
          <mxGeometry relative="1" as="geometry" />
        </mxCell>
        <mxCell id="dkbOTtgZ_LOJS4qJVRah-9" value="Abaixar o carro e retirar o macaco" style="rounded=1;whiteSpace=wrap;html=1;absoluteArcSize=1;arcSize=14;strokeWidth=2;fillColor=#d5e8d4;strokeColor=#82b366;" vertex="1" parent="1">
          <mxGeometry x="370" y="340" width="120" height="60" as="geometry" />
        </mxCell>
        <mxCell id="dkbOTtgZ_LOJS4qJVRah-21" value="" style="edgeStyle=orthogonalEdgeStyle;rounded=0;orthogonalLoop=1;jettySize=auto;html=1;" edge="1" parent="1" source="dkbOTtgZ_LOJS4qJVRah-10" target="dkbOTtgZ_LOJS4qJVRah-11">
          <mxGeometry relative="1" as="geometry" />
        </mxCell>
        <mxCell id="dkbOTtgZ_LOJS4qJVRah-10" value="Parafusar o step" style="rounded=1;whiteSpace=wrap;html=1;absoluteArcSize=1;arcSize=14;strokeWidth=2;fillColor=#d5e8d4;strokeColor=#82b366;" vertex="1" parent="1">
          <mxGeometry x="550" y="230" width="120" height="60" as="geometry" />
        </mxCell>
        <mxCell id="dkbOTtgZ_LOJS4qJVRah-22" style="edgeStyle=orthogonalEdgeStyle;rounded=0;orthogonalLoop=1;jettySize=auto;html=1;entryX=0;entryY=0.5;entryDx=0;entryDy=0;" edge="1" parent="1" source="dkbOTtgZ_LOJS4qJVRah-11" target="dkbOTtgZ_LOJS4qJVRah-19">
          <mxGeometry relative="1" as="geometry" />
        </mxCell>
        <mxCell id="dkbOTtgZ_LOJS4qJVRah-11" value="Guadar a roda com pneu furado e macaco no porta mala" style="rounded=1;whiteSpace=wrap;html=1;absoluteArcSize=1;arcSize=14;strokeWidth=2;fillColor=#d5e8d4;strokeColor=#82b366;" vertex="1" parent="1">
          <mxGeometry x="550" y="340" width="120" height="60" as="geometry" />
        </mxCell>
        <mxCell id="dkbOTtgZ_LOJS4qJVRah-23" value="" style="edgeStyle=orthogonalEdgeStyle;rounded=0;orthogonalLoop=1;jettySize=auto;html=1;" edge="1" parent="1" source="dkbOTtgZ_LOJS4qJVRah-19" target="dkbOTtgZ_LOJS4qJVRah-3">
          <mxGeometry relative="1" as="geometry" />
        </mxCell>
        <mxCell id="dkbOTtgZ_LOJS4qJVRah-19" value="Fechar o porta mala" style="rounded=1;whiteSpace=wrap;html=1;absoluteArcSize=1;arcSize=14;strokeWidth=2;fillColor=#d5e8d4;strokeColor=#82b366;" vertex="1" parent="1">
          <mxGeometry x="730" y="230" width="120" height="60" as="geometry" />
        </mxCell>
      </root>
    </mxGraphModel>
  </diagram>
</mxfile>
